<svg id="Layer_1" data-name="Layer 1" xmlns="http://www.w3.org/2000/svg" viewBox="0 0 1920 1080"><defs><style>.cls-1{fill:#f18100;}</style></defs><path d="M331,540.29c0-65,54.23-119.48,119-119.48,29.9.43,57.52,13.16,80.12,35.2l-21,28.47c-16.17-16.17-37.2-26.9-59.81-26.9-41.78,0-81.7,36.63-81.7,82.85,0,46.5,40.49,82.42,81.84,82.42,23.61,0,43.93-11.74,59.81-27.47l20.89,29.18c-19.88,19.61-45.21,34.63-79.55,34.63C385.21,659.19,331,605.39,331,540.29Z"/><path class="cls-1" d="M450.6,661.19a121.07,121.07,0,0,1-85.75-35.62c-23.13-23-35.88-53.27-35.88-85.28s12.72-62.33,35.81-85.52,53.37-36,85.25-36c29.77.42,58,12.79,81.52,35.76l1.25,1.22-23.45,31.75-1.65-1.64c-17-17-37.7-26.32-58.39-26.32-42.46,0-79.7,37.78-79.7,80.85,0,47.39,42.08,80.42,79.84,80.42,25.84,0,46-14.63,58.4-26.9l1.67-1.65,23.26,32.49-1.22,1.2C507.53,649.68,481,661.19,450.6,661.19ZM450,422.81c-63.42,0-117,53.8-117,117.48,0,64.46,52.76,116.9,117.62,116.9,28.82,0,54-10.75,76.93-32.86L509,598.43c-18.11,17.3-38.66,26.42-59.54,26.42s-41.83-8.87-57.82-24.33c-16.78-16.24-26-37.58-26-60.09s9.16-43.85,25.79-60.18c15.95-15.68,37.07-24.67,57.92-24.67,21.08,0,42.15,9.17,59.57,25.86l18.62-25.21C504.94,434.76,478.17,423.21,450,422.81Z"/><path d="M567.34,540.43c0-65.82,53.51-119.62,119.19-119.62s119.33,53.8,119.33,119.62c0,65.25-53.8,118.76-119.47,118.76S567.34,605.68,567.34,540.43Zm201.89-.29a83.07,83.07,0,0,0-82.84-82.84c-45.51,0-82.57,37.2-82.57,82.84a82.66,82.66,0,0,0,82.57,82.42C731.89,622.56,769.23,585.5,769.23,540.14Z"/><path class="cls-1" d="M686.39,661.19c-66.75,0-121.06-54.17-121.06-120.76,0-67.06,54.37-121.62,121.2-121.62s121.34,54.56,121.34,121.62C807.87,607,753.37,661.19,686.39,661.19Zm.14-238.38c-64.62,0-117.19,52.76-117.19,117.62,0,64.38,52.51,116.76,117,116.76,64.77,0,117.47-52.38,117.47-116.76C803.86,475.57,751.23,422.81,686.53,422.81Zm-.14,201.75a84.59,84.59,0,0,1-84.57-84.42c0-46.78,37.94-84.85,84.57-84.85a85,85,0,0,1,84.85,84.85C771.24,586.69,733.17,624.56,686.39,624.56Zm0-165.26c-44.43,0-80.56,36.26-80.56,80.84a80.57,80.57,0,0,0,80.56,80.42c44.57,0,80.84-36.07,80.84-80.42A80.93,80.93,0,0,0,686.39,459.3Z"/><path d="M995.15,655.47l-62.1-89.28H904.72v89.28h-36.2l-.15-230.66h71.69c42.93,0,78.13,33.06,78.13,74.12,0,29.77-19.18,55.66-45.65,64.25l67.11,92.29ZM940.92,536.14c21.75.14,39.92-17.46,39.92-38.06,0-21.47-18.46-37.35-39.92-37.35H904.57v75.41Z"/><path class="cls-1" d="M1043.58,657.47H994.1L932,568.19H906.72v89.28h-40.2l-.15-234.66h73.69c44.18,0,80.13,34.15,80.13,76.12,0,29-18.14,55.46-44.44,65.25Zm-47.38-4h39.52L969.3,562.13l2.62-.85c26.06-8.46,44.27-34.09,44.27-62.35,0-39.76-34.15-72.11-76.13-72.11H870.38l.14,226.65h32.2V564.18H934.1Zm-55-115.33h-38.6V458.73h38.35c23.51,0,41.92,17.28,41.92,39.35A39,39,0,0,1,971,525.8,42.59,42.59,0,0,1,941.17,538.14Zm-34.59-4h34.35A38.72,38.72,0,0,0,968.15,523a35,35,0,0,0,10.69-24.87c0-19.82-16.66-35.35-37.92-35.35H906.58Z"/><path d="M1232.08,460.73h-61.81V655.47h-36.35V460.73h-61.81V424.81h160Z"/><path class="cls-1" d="M1172.27,657.47h-40.35V462.73h-61.81V422.81h164v39.92h-61.81Zm-36.35-4h32.35V458.73h61.81V426.82h-156v31.91h61.81Z"/><path d="M1326.35,460.44v59.1h87.29V555.6h-87.29v63.81h101.17v36.06H1290.15V424.81h137.37v35.63Z"/><path class="cls-1" d="M1429.52,657.47H1288.15V422.81h141.37v39.64H1328.36v55.09h87.28V557.6h-87.28v59.81h101.16Zm-137.36-4h133.36V621.42H1324.35V553.59h87.29V521.54h-87.29v-63.1h101.17V426.82H1292.16Z"/><path d="M1549.69,535.71l-69.11-110.9h41.78l48.51,79,48.22-79h41.78l-69.11,110.75,74.12,119.91h-41.35l-53.8-87-53.66,87h-41.5Z"/><path class="cls-1" d="M1669.47,657.47h-46.06l-52.68-85.19-52.54,85.19H1472l75.36-121.76L1477,422.81h46.51L1570.86,500,1618,422.81h46.51l-70.36,112.76Zm-43.83-4h36.65L1589.4,535.56l67.86-108.74h-37l-49.34,80.81-49.63-80.81h-37l67.86,108.88-72.88,117.77H1516l54.77-88.81Z"/></svg>