<?xml version="1.0" encoding="utf-8"?>
<!-- Generator: Adobe Illustrator 25.2.0, SVG Export Plug-In . SVG Version: 6.00 Build 0)  -->
<svg version="1.1" id="Layer_1" xmlns="http://www.w3.org/2000/svg" xmlns:xlink="http://www.w3.org/1999/xlink" x="0px" y="0px"
	 viewBox="0 0 1920 1080" style="enable-background:new 0 0 1920 1080;" xml:space="preserve">
<style type="text/css">
	.st0{opacity:0.26;enable-background:new    ;}
	.st1{fill:#F31287;}
	.st2{fill:#FEB800;}
	.st3{fill:#009DC2;}
	.st4{fill:#C1005C;}
</style>
<g class="st0">
	<circle class="st1" cx="1050.2" cy="593.1" r="208"/>
</g>
<g class="st0">
	<circle class="st2" cx="794.6" cy="593.1" r="208"/>
</g>
<g class="st0">
	<circle class="st3" cx="924.5" cy="395.4" r="208"/>
</g>
<g>
	<path class="st4" d="M922.4,320.8L776.7,497.4L834,713.7h179.6l52.9-218.4L922.4,320.8z M954,530.1c0,17.5-14.2,31.7-31.7,31.7
		c-17.5,0-31.7-14.2-31.7-31.7s14.2-31.7,31.7-31.7C939.8,498.4,954,512.6,954,530.1z M1002.6,699.7H844.8l-52.8-198.9l124-150.4
		l0.6,136.3c-23.9,3.1-40.9,25-37.8,48.9c3.1,23.9,25,40.9,48.9,37.8c23.9-3.1,40.9-25,37.8-48.9c-2.5-19.4-17.6-34.8-36.9-37.7
		L928,349.7l123.2,149L1002.6,699.7z"/>
	<path d="M1015.2,715.7H832.5l-58-218.7l147.9-179.3l146.4,177l-0.2,1L1015.2,715.7z M835.5,711.7H1012l52.3-215.9L922.4,324
		L778.9,497.9L835.5,711.7z M1004.2,701.7H843.3l-53.4-201.3L918,344.9l0.6,143.6l-1.8,0.2c-11.1,1.4-20.9,7.1-27.7,15.9
		s-9.8,19.8-8.4,30.8c2.9,22.8,23.9,39,46.7,36.1c22.8-2.9,39-23.9,36.1-46.7c-2.4-18.4-16.9-33.2-35.2-36l-1.7-0.3L926,344.2
		l127.4,154.1l-0.2,1L1004.2,701.7z M846.3,697.7h154.7l48-198.4l-119-143.9l0.6,129.8c19.3,3.6,34.4,19.5,36.9,39.1
		c3.2,25-14.5,48-39.5,51.2c-12.1,1.6-24.1-1.7-33.8-9.2s-15.8-18.2-17.4-30.4c-1.6-12.1,1.7-24.1,9.2-33.8
		c7.1-9.2,17.2-15.2,28.6-17.1l-0.6-129L794.3,501.3L846.3,697.7z M922.3,563.8c-18.6,0-33.7-15.1-33.7-33.7
		c0-18.6,15.1-33.7,33.7-33.7c18.6,0,33.7,15.1,33.7,33.7v0C956,548.6,940.9,563.8,922.3,563.8z M922.3,500.4
		c-16.4,0-29.7,13.3-29.7,29.7s13.3,29.7,29.7,29.7s29.7-13.3,29.7-29.7C952,513.7,938.7,500.4,922.3,500.4z"/>
</g>
<g>
	<path class="st4" d="M1326.7,426.9v53.6h20.8c-3.2,230.1-189.8,416.6-419.8,419.8v-126h83.6v-44.1H832.1v44.1h83.5v126
		c-230.1-3.2-416.6-189.8-419.8-419.8h20.8v-53.6h-53.7v53.6h20.9c3.3,241.8,201.9,435.2,443.8,431.9
		c237.2-3.2,428.7-194.7,431.9-431.9h20.9v-53.6H1326.7z M474.9,468.5v-29.6h29.6v29.6H474.9z M845.1,761.3v-18.1h153.1v18.1H845.1z
		 M1368.3,468.5h-29.6v-29.6h29.6V468.5z"/>
	<path d="M921.4,914.5c-57.2,0-112.9-10.9-165.5-32.3c-52.7-21.4-100.1-52.5-141.1-92.4c-40.9-39.8-73.3-86.5-96.2-138.5
		c-23.4-53.3-35.8-110.1-36.9-168.8h-20.9v-57.6h57.7v57.6h-20.7c4.2,225.7,190.1,411.6,415.8,415.8v-122h-83.5v-48.1h183.1v48.1
		h-83.6v122c225.7-4.2,411.6-190.1,415.8-415.8h-20.7v-57.6h57.6v57.6h-20.9c-2.1,114.5-47.7,222.1-128.8,303.1
		c-81.5,81.5-189.8,127.2-305.1,128.8C925.5,914.5,923.4,914.5,921.4,914.5z M464.9,478.5h20.8l0,2
		c1.6,116.4,48.4,225.3,131.8,306.5C701,868.2,811,912,927.5,910.4c237.9-3.2,426.7-192.1,429.9-429.9l0-2h20.8v-49.6h-49.6v49.6
		h20.8l0,2c-1.5,111.8-46.1,217.1-125.4,296.4c-79.3,79.3-184.6,123.9-296.4,125.4l-2,0v-130h83.6v-40.1H834.1v40.1h83.5v130l-2,0
		c-111.8-1.6-217.1-46.1-296.4-125.4c-79.3-79.3-123.9-184.6-125.4-296.4l0-2h20.8v-49.6h-49.7V478.5z M1000.2,763.3H843.1v-22.1
		h157.1V763.3z M847.1,759.3h149.1v-14.1H847.1V759.3z M1370.3,470.5h-33.6v-33.6h33.6V470.5z M1340.7,466.5h25.6v-25.6h-25.6V466.5
		z M506.5,470.5h-33.6v-33.6h33.6V470.5z M476.9,466.5h25.6v-25.6h-25.6V466.5z"/>
</g>
</svg>
