<?xml version="1.0" encoding="utf-8"?>
<!-- Generator: Adobe Illustrator 25.2.0, SVG Export Plug-In . SVG Version: 6.00 Build 0)  -->
<svg version="1.1" id="Layer_1" xmlns="http://www.w3.org/2000/svg" xmlns:xlink="http://www.w3.org/1999/xlink" x="0px" y="0px"
	 viewBox="0 0 1366 768" style="enable-background:new 0 0 1366 768;" xml:space="preserve">
<style type="text/css">
	.st0{fill:#FFFFFF;}
	.st1{fill:#EA2A2A;}
	.st2{fill:#091A00;}
</style>
<rect x="459.8" y="424.1" class="st0" width="55.1" height="12.6"/>
<path class="st1" d="M515,436.4v85.2h16.4V346.5H515v77.6V436.4 M459.9,436.4v85.2h-16.6V346.5h16.6v77.6V436.4z"/>
<path class="st2" d="M513.9,345.5v77.6h-53.1v-77.6h-18.7v177.2h18.7v-84.9h53.1v84.9h18.4V345.5H513.9z M458.8,520.7h-14.7V347.5
	h14.7V520.7z M513.9,435.7h-53.1v-10.6h53.1V435.7z M530.4,520.7h-14.4V347.5h14.4V520.7z"/>
<path class="st0" d="M570.5,521.7V346.5h63.4v12.8h-46.7V425h38.1v12.1h-38.1v72.2h47.1v12.3L570.5,521.7z"/>
<path class="st2" d="M635.3,522.7h-65.8V345.5h65.4v14.8h-46.7V424h38.1v14.1h-38.1v70.2h47.1V522.7z M571.5,520.7h61.8v-10.3h-47.1
	v-74.2h38.1V426h-38.1v-67.8h46.7v-10.8h-61.4V520.7z"/>
<path class="st0" d="M665.4,521.7V346.5h16.4v162.8h49.7v12.3L665.4,521.7z"/>
<path class="st2" d="M732.6,522.7h-68.2V345.5h18.4v162.8h49.7V522.7z M666.4,520.7h64.2v-10.3h-49.7V347.5h-14.4V520.7z"/>
<path class="st0" d="M757.1,521.7V346.5h16.4v175.2H757.1z"/>
<path class="st2" d="M774.6,522.7h-18.4V345.5h18.4V522.7z M758.1,520.7h14.4V347.5h-14.4V520.7z"/>
<polygon class="st1" points="856,434.3 848.2,451.8 817,521.7 801.2,521.7 840.4,434.3 801.2,346.5 816.6,346.5 848.2,416.9 "/>
<path class="st2" d="M817.7,522.7h-18l39.6-88.4l-39.6-88.8h17.5l39.8,88.8l-8,17.9L817.7,522.7z M802.8,520.7h13.6l38.5-86.3
	L816,347.5h-13.2l38.7,86.8l-0.2,0.4L802.8,520.7z"/>
<polygon class="st0" points="848.2,451.8 879.3,521.7 895.1,521.7 856,434.3 "/>
<path class="st2" d="M896.7,522.7h-18l-0.3-0.6l-31.3-70.3l8.9-19.9L896.7,522.7z M880,520.7h13.6L856,436.8l-6.7,15L880,520.7z"/>
<polygon class="st0" points="879.8,346.5 848.2,416.9 856,434.3 895.1,346.5 "/>
<path class="st2" d="M856,436.8l-8.9-19.8l0.2-0.4l31.8-71h17.6L856,436.8z M849.3,416.9l6.7,14.9l37.6-84.4h-13.2L849.3,416.9z"/>
</svg>
