<?xml version="1.0" encoding="utf-8"?>
<!-- Generator: Adobe Illustrator 25.2.0, SVG Export Plug-In . SVG Version: 6.00 Build 0)  -->
<svg version="1.1" id="Layer_1" xmlns="http://www.w3.org/2000/svg" xmlns:xlink="http://www.w3.org/1999/xlink" x="0px" y="0px"
	 viewBox="0 0 1080 348" style="enable-background:new 0 0 1080 348;" xml:space="preserve">
<style type="text/css">
	.st0{fill:#FFFFFF;}
	.st1{fill:#0F0F0F;}
	.st2{fill:#F2AC7C;}
</style>
<path class="st0" d="M117.5,108.8h17.4v110.9h-17.4V108.8z"/>
<path class="st1" d="M138.4,223.2H114V105.3h24.4V223.2z M121,216.2h10.4V112.3H121V216.2z"/>
<path class="st0" d="M245,164.4c0,34.1-21.9,55.3-57.2,55.3h-31.6V108.8h31.6C223.1,108.7,245,130.1,245,164.4z M227.4,164.3
	c0-23.5-15.3-38.3-39.6-38.3h-14.2v76.3H188C212.2,202.4,227.4,187.7,227.4,164.3z"/>
<path class="st1" d="M187.8,223.2h-35.1V105.3h35.1c0.1,0,0.1,0,0.2,0c18.4,0,33.8,5.7,44.5,16.3c10.4,10.4,16,25.2,16,42.7
	c0,17.7-5.7,32.5-16.4,42.9C221.3,217.7,206,223.2,187.8,223.2z M159.8,216.2h28.1c33.1,0,53.7-19.9,53.7-51.8
	c0-15.6-4.8-28.7-13.9-37.8c-9.4-9.4-23.1-14.3-39.8-14.3h-28.1V216.2z M188,205.9h-17.9v-83.3h17.7c26.2,0,43.1,16.4,43.1,41.8
	C230.9,189.6,214.1,205.9,188,205.9z M177.1,198.9H188c22.2,0,35.9-13.2,35.9-34.5c0-21.4-13.8-34.8-36.1-34.8h-10.7V198.9z"/>
<path class="st0" d="M278.4,125.9v28.4h42v17.3h-42v30.7H327v17.3h-66V108.8h66v17.1H278.4z"/>
<path class="st1" d="M330.5,223.2h-73V105.3h73v24.1h-48.6v21.4h42v24.3h-42v23.7h48.6V223.2z M264.5,216.2h59v-10.3h-48.6v-37.7h42
	v-10.3h-42v-35.4h48.6v-10.1h-59V216.2z"/>
<path class="st0" d="M414.9,202.9h-52.5l-7.6,16.9H336l52.2-113.2h1l52.2,113.2h-18.9L414.9,202.9z M408.2,187.9l-19.5-43.3
	l-19.5,43.3H408.2z"/>
<path class="st1" d="M446.8,223.2h-26.6l-7.6-16.9h-48l-7.6,16.9h-26.6L385.9,103h5.5L446.8,223.2z M424.8,216.2h11.1l-47.2-102.4
	l-47.2,102.4h11.1l7.6-16.9h57L424.8,216.2z M413.6,191.4h-49.8l25-55.4L413.6,191.4z M374.6,184.4h28.2l-14.1-31.3L374.6,184.4z"/>
<path class="st0" d="M509.4,126.1h-29.7v93.6h-17.5v-93.6h-29.7v-17.3h76.9V126.1z"/>
<path class="st1" d="M483.2,223.2h-24.5v-93.6H429v-24.3h83.9v24.3h-29.7V223.2z M465.7,216.2h10.5v-93.6h29.7v-10.3H436v10.3h29.7
	V216.2z"/>
<path class="st0" d="M606,108.8v110.9h-17.4v-46.9h-48v46.9h-17.3V108.8h17.3v46.8h48v-46.8H606z"/>
<path class="st1" d="M609.5,223.2h-24.4v-46.9h-41v46.9h-24.3V105.3h24.3v46.8h41v-46.8h24.4V223.2z M592.1,216.2h10.4V112.3h-10.4
	v46.8h-55v-46.8h-10.3v103.9h10.3v-46.9h55V216.2z"/>
<path class="st0" d="M622,164.4c0-31.6,25.7-57.5,57.3-57.5c31.5,0,57.4,25.9,57.4,57.5c0,31.4-25.9,57.1-57.5,57.1
	C647.8,221.5,622,195.8,622,164.4z M719.1,164.3c0-21.9-18-39.8-39.8-39.8s-39.7,17.9-39.7,39.8c0,21.8,17.8,39.6,39.7,39.6
	S719.1,186.1,719.1,164.3z"/>
<path class="st1" d="M679.3,225c-33.5,0-60.7-27.2-60.7-60.6c0-33.6,27.3-61,60.8-61c33.6,0,60.9,27.4,60.9,61
	C740.2,197.8,712.9,225,679.3,225z M679.3,110.4c-29.7,0-53.8,24.2-53.8,54c0,29.6,24.1,53.6,53.7,53.6c29.7,0,54-24,54-53.6
	C733.2,134.6,709,110.4,679.3,110.4z M679.3,207.4c-23.8,0-43.2-19.3-43.2-43.1c0-23.9,19.4-43.3,43.2-43.3
	c23.9,0,43.3,19.4,43.3,43.3C722.6,188,703.2,207.4,679.3,207.4z M679.3,127.9c-20,0-36.2,16.3-36.2,36.3
	c0,19.9,16.2,36.1,36.2,36.1c20,0,36.3-16.2,36.3-36.1C715.6,144.2,699.3,127.9,679.3,127.9z"/>
<path class="st0" d="M841.8,108.5v113.1H841l-70.9-74.1v72.3h-17.4v-113h0.9l70.8,74v-72.3H841.8z"/>
<path class="st1" d="M845.3,225.1h-5.8l-65.9-68.9v67.1h-24.4v-120h5.9l65.8,68.7V105h24.5V225.1z M756.2,216.3h10.4v-77.5l71.8,75
	V112h-10.5v77.5l-71.7-74.9V216.3z"/>
<path class="st2" d="M904.4,108.8h17.4v110.9h-17.4V108.8z"/>
<path class="st1" d="M925.4,223.2h-24.4V105.3h24.4V223.2z M907.9,216.2h10.4V112.3h-10.4V216.2z"/>
<path class="st2" d="M943.2,108.8h17.4v110.9h-17.4V108.8z"/>
<path class="st1" d="M964.1,223.2h-24.4V105.3h24.4V223.2z M946.7,216.2h10.4V112.3h-10.4V216.2z"/>
</svg>
