<svg id="Layer_1" data-name="Layer 1" xmlns="http://www.w3.org/2000/svg" viewBox="0 0 1366 768"><defs><style>.cls-1{fill:#e40c00;}</style></defs><path d="M325.49,422.37a42.73,42.73,0,0,1-16.75-16,46.15,46.15,0,0,1,0-45.79,42.73,42.73,0,0,1,16.75-16,52.59,52.59,0,0,1,47.9,0,42.93,42.93,0,0,1,16.75,15.95,46.37,46.37,0,0,1,0,45.91,42.86,42.86,0,0,1-16.75,15.95,52.59,52.59,0,0,1-47.9,0Zm39.58-12.29A28.1,28.1,0,0,0,376,399.16a32.94,32.94,0,0,0,0-31.39,28.1,28.1,0,0,0-10.92-10.92,33.22,33.22,0,0,0-31.27,0,28.23,28.23,0,0,0-10.92,10.92,33,33,0,0,0,0,31.39,28.23,28.23,0,0,0,10.92,10.92,33.22,33.22,0,0,0,31.27,0Z"/><path class="cls-1" d="M349.44,429.64a51.33,51.33,0,0,1-24.66-5.95h0a44.35,44.35,0,0,1-17.33-16.57,47.64,47.64,0,0,1,0-47.32,44.4,44.4,0,0,1,17.33-16.56,54.08,54.08,0,0,1,49.32,0,44.59,44.59,0,0,1,17.33,16.5,47.89,47.89,0,0,1,0,47.45,44.59,44.59,0,0,1-17.33,16.5A51.33,51.33,0,0,1,349.44,429.64Zm0-89.35a48.28,48.28,0,0,0-23.24,5.59A41.4,41.4,0,0,0,310,361.34a44.63,44.63,0,0,0,0,44.25,41.4,41.4,0,0,0,16.17,15.46h0a51.1,51.1,0,0,0,46.48,0,41.53,41.53,0,0,0,16.17-15.4,44.86,44.86,0,0,0,0-44.37,41.6,41.6,0,0,0-16.17-15.4A48.31,48.31,0,0,0,349.44,340.29Zm0,75.2a33,33,0,0,1-16.37-4.1,29.85,29.85,0,0,1-11.49-11.49,34.47,34.47,0,0,1,0-32.87,29.85,29.85,0,0,1,11.49-11.49,34.73,34.73,0,0,1,32.74,0A29.85,29.85,0,0,1,377.3,367a34.47,34.47,0,0,1,0,32.87,29.92,29.92,0,0,1-11.49,11.49h0A33,33,0,0,1,349.44,415.49Zm0-61.05a30.05,30.05,0,0,0-14.9,3.71,26.9,26.9,0,0,0-10.35,10.36,31.47,31.47,0,0,0,0,29.91,26.88,26.88,0,0,0,10.35,10.35,31.7,31.7,0,0,0,29.8,0,26.88,26.88,0,0,0,10.35-10.35,31.47,31.47,0,0,0,0-29.91,27,27,0,0,0-10.35-10.36A30.08,30.08,0,0,0,349.44,354.44Z"/><path d="M468.75,343.76a28.57,28.57,0,0,1,12.84,10.67,32.58,32.58,0,0,1,0,32.94,28.46,28.46,0,0,1-12.84,10.74,48.11,48.11,0,0,1-19.67,3.72h-19.6V426.9H413.34V340h35.74A47.94,47.94,0,0,1,468.75,343.76Zm-4.4,39.95q5.44-4.47,5.46-12.78t-5.46-12.78q-5.48-4.47-16-4.47H429.48v34.5h18.86Q458.89,388.18,464.35,383.71Z"/><path class="cls-1" d="M431,428.4H411.84V338.53h37.24a49.71,49.71,0,0,1,20.28,3.86,30.17,30.17,0,0,1,13.5,11.23,34.12,34.12,0,0,1,0,34.56,30.18,30.18,0,0,1-13.5,11.3,49.88,49.88,0,0,1-20.28,3.85H431Zm-16.14-3H428V400.33h21.1a46.9,46.9,0,0,0,19.06-3.59,27.08,27.08,0,0,0,12.19-10.17,31.12,31.12,0,0,0,0-31.33,27.22,27.22,0,0,0-12.19-10.11h0a46.73,46.73,0,0,0-19.06-3.6H414.84Zm33.5-35.72H428v-37.5h20.36c7.35,0,13.06,1.62,17,4.81s6,7.95,6,13.94-2,10.68-6,13.94h0C461.4,388.06,455.69,389.68,448.34,389.68Zm-17.36-3h17.36c6.64,0,11.71-1.39,15.06-4.13s4.91-6.5,4.91-11.62-1.61-8.91-4.91-11.62-8.42-4.13-15.06-4.13H431Z"/><path d="M567.34,413.37V426.9H502.19V340H565.6v13.53H518.32v22.58h41.95v13.28H518.32v23.95Z"/><path class="cls-1" d="M568.84,428.4H500.69V338.53H567.1v16.53H519.82v19.58h41.95v16.28H519.82v20.95h49Zm-65.15-3h62.15V414.87h-49V387.92h41.95V377.64H516.82V352.06H564.1V341.53H503.69Z"/><path d="M662.52,340V426.9H649.24l-47.9-58.82V426.9h-16V340h13.28l47.9,58.82V340Z"/><path class="cls-1" d="M664,428.4H648.53l-45.69-56.11V428.4h-19V338.53h15.49L645,394.63v-56.1h19Zm-14.07-3H661V341.53H648v61.54L597.9,341.53H586.83V425.4h13V363.86Z"/><path d="M736.53,422.37a42.51,42.51,0,0,1-16.62-15.95,46.57,46.57,0,0,1,.06-45.91,43,43,0,0,1,16.69-15.95,52.21,52.21,0,0,1,43.24-2,39.68,39.68,0,0,1,14.89,10.79l-10.42,9.8a30.4,30.4,0,0,0-23.2-10.17,32.48,32.48,0,0,0-16,3.91,28.08,28.08,0,0,0-11,10.86,33.25,33.25,0,0,0,0,31.51,28.08,28.08,0,0,0,11,10.86,32.48,32.48,0,0,0,16,3.91,30.22,30.22,0,0,0,23.2-10.3l10.42,9.93a39.66,39.66,0,0,1-14.95,10.79,49.85,49.85,0,0,1-19.54,3.73A49,49,0,0,1,736.53,422.37Z"/><path class="cls-1" d="M760.3,429.64a50.62,50.62,0,0,1-24.48-6h0a44.2,44.2,0,0,1-17.21-16.5,48.1,48.1,0,0,1,.07-47.44,44.61,44.61,0,0,1,17.26-16.5,50.62,50.62,0,0,1,24.48-5.95,51.32,51.32,0,0,1,20.07,3.84,41.42,41.42,0,0,1,15.44,11.2l.94,1.09L784.3,365.24l-1-1.11a29.08,29.08,0,0,0-22.1-9.69,31.21,31.21,0,0,0-15.29,3.72,26.74,26.74,0,0,0-10.46,10.29,31.71,31.71,0,0,0,0,30,26.74,26.74,0,0,0,10.46,10.29,31.21,31.21,0,0,0,15.29,3.72,28.9,28.9,0,0,0,22.09-9.81l1-1.13,12.56,12-.93,1.08a41.35,41.35,0,0,1-15.51,11.2A51.86,51.86,0,0,1,760.3,429.64Zm.12-89.35a47.6,47.6,0,0,0-23,5.59,41.6,41.6,0,0,0-16.12,15.4,45.08,45.08,0,0,0-.06,44.38,41.26,41.26,0,0,0,16,15.39h0a47.64,47.64,0,0,0,23,5.59,48.79,48.79,0,0,0,19-3.61,38.35,38.35,0,0,0,13.45-9.33l-8.29-7.89a31.62,31.62,0,0,1-23.25,9.68,34.16,34.16,0,0,1-16.74-4.1A29.67,29.67,0,0,1,732.81,400a34.75,34.75,0,0,1,0-33,29.77,29.77,0,0,1,11.62-11.43,34.27,34.27,0,0,1,16.74-4.09A31.85,31.85,0,0,1,784.42,361l8.28-7.79a38.41,38.41,0,0,0-13.38-9.32A48.34,48.34,0,0,0,760.42,340.29Z"/><path d="M810.3,340h16.14v73.22h45.41V426.9H810.3Z"/><path class="cls-1" d="M873.35,428.4H808.8V338.53h19.14v73.22h45.41Zm-61.55-3h58.55V414.75H824.94V341.53H811.8Z"/><path d="M899.65,422.37a42.73,42.73,0,0,1-16.75-16,46.15,46.15,0,0,1,0-45.79,42.73,42.73,0,0,1,16.75-16,52.59,52.59,0,0,1,47.9,0,42.93,42.93,0,0,1,16.75,15.95,46.37,46.37,0,0,1,0,45.91,42.86,42.86,0,0,1-16.75,15.95,52.59,52.59,0,0,1-47.9,0Zm39.58-12.29a28.1,28.1,0,0,0,10.92-10.92,33,33,0,0,0,0-31.39,28.1,28.1,0,0,0-10.92-10.92,33.22,33.22,0,0,0-31.27,0A28.23,28.23,0,0,0,897,367.77a33,33,0,0,0,0,31.39A28.23,28.23,0,0,0,908,410.08a33.22,33.22,0,0,0,31.27,0Z"/><path class="cls-1" d="M923.6,429.64a51.33,51.33,0,0,1-24.66-5.95,44.35,44.35,0,0,1-17.33-16.57,47.64,47.64,0,0,1,0-47.32,44.4,44.4,0,0,1,17.33-16.56,54.08,54.08,0,0,1,49.32,0,44.59,44.59,0,0,1,17.33,16.5,47.89,47.89,0,0,1,0,47.45,44.59,44.59,0,0,1-17.33,16.5A51.33,51.33,0,0,1,923.6,429.64Zm0-89.35a48.28,48.28,0,0,0-23.24,5.59,41.4,41.4,0,0,0-16.17,15.46,44.63,44.63,0,0,0,0,44.25,41.4,41.4,0,0,0,16.17,15.46h0a51.08,51.08,0,0,0,46.47,0A41.56,41.56,0,0,0,963,405.65a44.86,44.86,0,0,0,0-44.37,41.56,41.56,0,0,0-16.18-15.4A48.24,48.24,0,0,0,923.6,340.29Zm0,75.2a33,33,0,0,1-16.37-4.1,29.85,29.85,0,0,1-11.49-11.49,34.47,34.47,0,0,1,0-32.87,29.85,29.85,0,0,1,11.49-11.49,34.73,34.73,0,0,1,32.74,0A29.85,29.85,0,0,1,951.46,367a34.55,34.55,0,0,1,0,32.87A29.92,29.92,0,0,1,940,411.39h0A33,33,0,0,1,923.6,415.49Zm0-61.05a30,30,0,0,0-14.9,3.71,27,27,0,0,0-10.35,10.36,31.47,31.47,0,0,0,0,29.91,26.88,26.88,0,0,0,10.35,10.35,31.7,31.7,0,0,0,29.8,0,26.88,26.88,0,0,0,10.35-10.35,31.55,31.55,0,0,0,0-29.91,27,27,0,0,0-10.35-10.36A30.08,30.08,0,0,0,923.6,354.44Z"/><path d="M996.81,418q-10-10.11-10-29V340h16.13v48.4q0,25.56,22.09,25.56t22-25.56V340h15.89v49q0,18.85-10,29t-28,10.12Q1006.86,428.14,996.81,418Z"/><path class="cls-1" d="M1024.86,429.64c-12.36,0-22.15-3.56-29.11-10.56h0c-7-7-10.49-17.1-10.49-30V338.53h19.13v49.9c0,16.19,6.74,24.06,20.59,24.06s20.46-7.87,20.46-24.06v-49.9h18.89v50.52c0,12.92-3.51,23-10.43,30S1037.21,429.64,1024.86,429.64Zm-36.6-88.11v47.52c0,12.1,3.23,21.5,9.61,27.92h0c6.38,6.41,15.46,9.67,27,9.67s20.57-3.26,26.91-9.67,9.56-15.81,9.56-27.92V341.53h-12.89v46.9c0,17.95-7.89,27.06-23.46,27.06s-23.59-9.11-23.59-27.06v-46.9Z"/><path d="M1085.41,340h38a54.45,54.45,0,0,1,24.69,5.4,40,40,0,0,1,16.76,15.26,46.56,46.56,0,0,1,0,45.55,40,40,0,0,1-16.76,15.26,54.45,54.45,0,0,1-24.69,5.4h-38Zm37.23,73.22a36.73,36.73,0,0,0,16.81-3.67,26.14,26.14,0,0,0,11.17-10.42,33.46,33.46,0,0,0,0-31.39,26.28,26.28,0,0,0-11.17-10.43,36.85,36.85,0,0,0-16.81-3.66h-21.1v59.57Z"/><path class="cls-1" d="M1123.38,428.4h-39.47V338.53h39.47a56.21,56.21,0,0,1,25.37,5.56,41.61,41.61,0,0,1,17.36,15.83,48,48,0,0,1,0,47.09,41.61,41.61,0,0,1-17.36,15.83A56.21,56.21,0,0,1,1123.38,428.4Zm-36.47-3h36.47a53.31,53.31,0,0,0,24-5.24,38.66,38.66,0,0,0,16.14-14.7,45,45,0,0,0,0-44,38.66,38.66,0,0,0-16.14-14.7,53.31,53.31,0,0,0-24-5.24h-36.47Zm35.73-10.65H1100V352.18h22.6a38.57,38.57,0,0,1,17.48,3.82,27.77,27.77,0,0,1,11.8,11,35,35,0,0,1,0,32.89,27.75,27.75,0,0,1-11.8,11A38.41,38.41,0,0,1,1122.64,414.75Zm-19.6-3h19.6a35.54,35.54,0,0,0,16.13-3.5,24.87,24.87,0,0,0,10.55-9.84,32,32,0,0,0,0-29.89,24.81,24.81,0,0,0-10.55-9.84,35.54,35.54,0,0,0-16.13-3.5H1103Z"/></svg>