<svg id="Layer_1" data-name="Layer 1" xmlns="http://www.w3.org/2000/svg" viewBox="0 0 1920 1080"><defs><style>.cls-1{fill:#01a0c7;}.cls-2{fill:#00a0c7;}.cls-3{fill:#0082a9;}.cls-4{fill:#0a5078;}.cls-5{fill:#009fc7;}</style></defs><path class="cls-1" d="M1297.88,532.74a60.37,60.37,0,0,1-16.05,2.18c-7.64-.12-15.36-.18-23-.21,15.36-10.68,24.13-26.9,26.1-48.31,1.19-13-2.49-25.52-11.59-39.46a47.23,47.23,0,0,0-13.1-13.69c-11.36-7.78-21.93-12.08-32.84-13.32-5.19-32.69-21.15-50.33-51.24-56.91a47.16,47.16,0,0,0-10.64-1c-10.73.13-22.65,3.47-34,9.7-10.61,5.81-17.33,13.9-22.7,23.35,0-.11-.06-.21-.1-.32-.07.11-.13.22-.19.33a128.4,128.4,0,0,0-22.24-43.89c-13.76-17.71-31.23-30.39-53.4-38.75a118.51,118.51,0,0,0-39.1-7.88c-1.3,0-2.59,0-3.88,0l-1.5,0a107.55,107.55,0,0,0-22,2.94c-26.68,6.4-49.5,19.8-66,38.74-17.21,19.77-27.25,44.7-29.89,74.18-1.22.21-2.43.45-3.62.68-.93.18-1.85.37-2.77.53-14.06,2.55-26,9.21-34.54,19.25-15,17.61-19.87,37.62-14.16,57.85,4.65,16.52,12.69,28.49,24.47,36.4h-.27l-5.71.11c-4.84-.26-9.72-.39-14.59-.39s-9.7.13-14.51.39l-2.82-.12c-2.26-.1-4.6-.2-7-.2q-23.21,0-46.38.05c-33.63.06-68.4.12-102.57-.19-27.42-.25-49.42-12.1-65.4-35.21A79.23,79.23,0,0,1,589.46,399c16.12-16.36,35.14-24.37,58.15-24.5,12.79-.07,25.31-.05,38.56,0h10.09a14.06,14.06,0,0,0,14-12.59c5-47.21,28.76-79.19,70.64-95,39.78-15.06,77.12-8.16,111,20.49a13.87,13.87,0,0,0,22.53-7.72c11.8-55.44,43.46-95.72,94.11-119.71,37.61-17.82,78.23-20.22,120.71-7.15,74.29,22.86,136.59,109,107.72,208.28a10.47,10.47,0,0,0,10,13.4c4.93.05,9.93,0,14.76,0,6.33,0,12.88,0,19.29.09,37,.69,70,29,76.91,65.85C1364.63,476.38,1344,520.76,1297.88,532.74Z"/><path d="M1086.56,351.17c-13.76-17.71-31.23-30.39-53.4-38.75a118.07,118.07,0,0,0-39.38-7.88,118.51,118.51,0,0,1,39.1,7.88c22.17,8.36,39.64,21,53.4,38.75a128.4,128.4,0,0,1,22.24,43.89c.06-.11.12-.22.19-.33A128.71,128.71,0,0,0,1086.56,351.17Z"/><path d="M1369.7,438.19A93.52,93.52,0,0,0,1339,385.05a91.13,91.13,0,0,0-57.79-22.5c-6.54-.12-13.16-.1-19.55-.09-4.14,0-8.39,0-12.62,0,13.67-48.82,7.73-98.76-16.8-140.84-22.45-38.51-58.7-67.79-99.46-80.33-45.44-14-89-11.37-129.37,7.77-54.22,25.68-88.1,68.77-100.71,128.06a1.84,1.84,0,0,1-1.24,1.4,1.82,1.82,0,0,1-1.81-.34c-37.45-31.69-78.83-39.27-123-22.55-23.52,8.91-42.14,22.66-55.33,40.86-12.59,17.39-20.33,39-23,64.14a2.08,2.08,0,0,1-2.08,1.86H686.19c-13.28,0-25.82,0-38.65,0-26,.15-48.41,9.59-66.63,28.08a91.24,91.24,0,0,0-10.13,115.79c18.07,26.14,44.05,40.1,75.16,40.39,34.24.31,69,.25,102.7.19q20.72,0,41.42-.05c3.75,0,7.41,0,11.39.19l3.18.13h.27l.26,0a261.55,261.55,0,0,1,28.28,0h.22l34.14-.61h.07l4.83.09c3.85.08,7.84.15,11.78.18l46.46.25,17.42.09h.17a278.86,278.86,0,0,1,28.33,0h.33l20.81-.11c15.79-.09,32.13-.18,48.19-.2,10.51,0,21.18.09,31.5.19l14.11.12.5,0a280,280,0,0,1,28.09,0c.26,0,.51,0,.8,0l3-.12c2.25-.09,4.38-.18,6.51-.19q39.12-.13,78.25-.23l20.87-.06h.76l14.47,0c12,0,24.41.07,36.6.26a72.51,72.51,0,0,0,19.24-2.57,93.47,93.47,0,0,0,56.34-41.21A91.32,91.32,0,0,0,1369.7,438.19Zm-140.24,96.43-20.54.06q-39.14.11-78.26.23c-2.36,0-4.7.11-7,.2l-2.8.11a285.9,285.9,0,0,0-29.13,0l-14-.12c-10.35-.1-21.07-.2-31.62-.19-16.09,0-32.44.11-48.25.2l-20.63.11a284.6,284.6,0,0,0-29.21,0L931,535.14l-46.45-.25c-3.86,0-7.81-.1-11.62-.17l-4.28-.08h-.28a98.54,98.54,0,0,1-17.44-6.74c-12.06-6.16-19.78-16.47-24.27-32.43C822,479,826,463.27,838.41,448.64c6.81-8,16.08-13.13,27.54-15.21l2.94-.56c1.69-.33,3.29-.65,4.86-.88a9.63,9.63,0,0,0,8.26-8.78c4.23-53.89,35.9-91.82,86.88-104a95,95,0,0,1,18.49-2.56c.89,0,1.78-.06,2.67-.07,1.15,0,2.3,0,3.45,0a106.34,106.34,0,0,1,35.42,7.09c20,7.56,35.8,19,48.17,34.89a118.49,118.49,0,0,1,22.1,47.29,9.55,9.55,0,0,0,7.18,5.13l.34.05c.3,0,.6.05.89.05a9.56,9.56,0,0,0,8.84-5.34c4.18-8.33,9.88-17.64,20.56-23.49s19.93-8.58,28.3-8.2a33.2,33.2,0,0,1,5.66.73c27.07,5.91,40.39,20.49,44.55,48.74a8.94,8.94,0,0,0,.58,2.13,9.56,9.56,0,0,0,7.68,6,3,3,0,0,0,.51.07c9.47.79,18.66,4.43,28.9,11.44A35.7,35.7,0,0,1,1263,453.5c7.54,11.56,10.62,21.66,9.69,31.8-1.85,20.15-10.36,34.1-26,42.63A86.76,86.76,0,0,1,1229.46,534.62Zm68.42-1.88a60.37,60.37,0,0,1-16.05,2.18c-7.64-.12-15.36-.18-23-.21,15.36-10.68,24.13-26.9,26.1-48.31,1.19-13-2.49-25.52-11.59-39.46a47.23,47.23,0,0,0-13.1-13.69c-11.36-7.78-21.93-12.08-32.84-13.32-5.19-32.69-21.15-50.33-51.24-56.91a47.16,47.16,0,0,0-10.64-1c-10.73.13-22.65,3.47-34,9.7-10.61,5.81-17.33,13.9-22.7,23.35,0-.11-.06-.21-.1-.32-.07.11-.13.22-.19.33a128.4,128.4,0,0,0-22.24-43.89c-13.76-17.71-31.23-30.39-53.4-38.75a118.51,118.51,0,0,0-39.1-7.88c-1.3,0-2.59,0-3.88,0l-1.5,0a107.55,107.55,0,0,0-22,2.94c-26.68,6.4-49.5,19.8-66,38.74-17.21,19.77-27.25,44.7-29.89,74.18-1.22.21-2.43.45-3.62.68-.93.18-1.85.37-2.77.53-14.06,2.55-26,9.21-34.54,19.25-15,17.61-19.87,37.62-14.16,57.85,4.65,16.52,12.69,28.49,24.47,36.4h-.27l-5.71.11c-4.84-.26-9.72-.39-14.59-.39s-9.7.13-14.51.39l-2.82-.12c-2.26-.1-4.6-.2-7-.2q-23.21,0-46.38.05c-33.63.06-68.4.12-102.57-.19-27.42-.25-49.42-12.1-65.4-35.21A79.23,79.23,0,0,1,589.46,399c16.12-16.36,35.14-24.37,58.15-24.5,12.79-.07,25.31-.05,38.56,0h10.09a14.06,14.06,0,0,0,14-12.59c5-47.21,28.76-79.19,70.64-95,39.78-15.06,77.12-8.16,111,20.49a13.87,13.87,0,0,0,22.53-7.72c11.8-55.44,43.46-95.72,94.11-119.71,37.61-17.82,78.23-20.22,120.71-7.15,74.29,22.86,136.59,109,107.72,208.28a10.47,10.47,0,0,0,10,13.4c4.93.05,9.93,0,14.76,0,6.33,0,12.88,0,19.29.09,37,.69,70,29,76.91,65.85C1364.63,476.38,1344,520.76,1297.88,532.74Z"/><path class="cls-2" d="M1272.7,485.3c-1.85,20.15-10.36,34.1-26,42.63a86.76,86.76,0,0,1-17.25,6.69l-20.54.06q-39.14.11-78.26.23c-2.36,0-4.7.11-7,.2l-2.8.11a285.9,285.9,0,0,0-29.13,0l-14-.12c-10.35-.1-21.07-.2-31.62-.19-16.09,0-32.44.11-48.25.2l-20.63.11a284.6,284.6,0,0,0-29.21,0L931,535.14l-46.45-.25c-3.86,0-7.81-.1-11.62-.17l-4.28-.08h-.28a98.54,98.54,0,0,1-17.44-6.74c-12.06-6.16-19.78-16.47-24.27-32.43C822,479,826,463.27,838.41,448.64c6.81-8,16.08-13.13,27.54-15.21l2.94-.56c1.69-.33,3.29-.65,4.86-.88a9.63,9.63,0,0,0,8.26-8.78c4.23-53.89,35.9-91.82,86.88-104a95,95,0,0,1,18.49-2.56c.89,0,1.78-.06,2.67-.07,1.15,0,2.3,0,3.45,0a106.73,106.73,0,0,1,35.14,7.09c20,7.56,35.8,19,48.17,34.89a117.92,117.92,0,0,1,21.6,45.18,9.84,9.84,0,0,0,.78,2.11,9.55,9.55,0,0,0,7.18,5.13l.34.05c.3,0,.6.05.89.05a9.56,9.56,0,0,0,8.84-5.34c4.18-8.33,9.88-17.64,20.56-23.49s19.93-8.58,28.3-8.2a33.2,33.2,0,0,1,5.66.73c27.07,5.91,40.39,20.49,44.55,48.74a8.94,8.94,0,0,0,.58,2.13,9.56,9.56,0,0,0,7.68,6,3,3,0,0,0,.51.07c9.47.79,18.66,4.43,28.9,11.44A35.7,35.7,0,0,1,1263,453.5C1270.55,465.06,1273.63,475.16,1272.7,485.3Z"/><path class="cls-3" d="M1099.19,405.82a9.84,9.84,0,0,1-.78-2.11,117.92,117.92,0,0,0-21.6-45.18c-12.37-15.91-28.12-27.33-48.17-34.89a106.73,106.73,0,0,0-35.14-7.09,106.34,106.34,0,0,1,35.42,7.09c20,7.56,35.8,19,48.17,34.89A118.49,118.49,0,0,1,1099.19,405.82Z"/><path d="M966.09,307.49c-26.22,6.29-48.76,19.37-65.18,37.82-17.7,19.88-28,45.14-30.7,75.1-1.23.21-2.44.45-3.63.68-.93.18-1.85.37-2.77.53-14.06,2.55-26,9.21-34.54,19.25-15,17.61-19.86,37.62-14.16,57.85,4.65,16.52,12.69,28.49,24.48,36.4h.27c-11.78-7.91-19.82-19.88-24.47-36.4-5.71-20.23-.81-40.24,14.16-57.85,8.53-10,20.48-16.7,34.54-19.25.92-.16,1.84-.35,2.77-.53,1.19-.23,2.4-.47,3.62-.68,2.64-29.48,12.68-54.41,29.89-74.18,16.5-18.94,39.32-32.34,66-38.74a107.55,107.55,0,0,1,22-2.94A106.81,106.81,0,0,0,966.09,307.49Zm111,51c-12.37-15.91-28.13-27.33-48.17-34.89a106.34,106.34,0,0,0-35.42-7.09,106.73,106.73,0,0,1,35.14,7.09c20,7.56,35.8,19,48.17,34.89a117.92,117.92,0,0,1,21.6,45.18,9.84,9.84,0,0,0,.78,2.11A118.49,118.49,0,0,0,1077.09,358.53Zm54.14,13.17c-11,6.05-17.84,14.89-22.52,23,0,.11.07.21.1.32,5.37-9.45,12.09-17.54,22.7-23.35,11.36-6.23,23.28-9.57,34-9.7C1155,361.58,1143.92,364.75,1131.23,371.7Z"/><rect class="cls-4" x="905.44" y="706.01" width="114.9" height="157.69"/><path class="cls-5" d="M905.44,863.7h114.9a0,0,0,0,1,0,0v8a13.94,13.94,0,0,1-13.94,13.94h-87a13.94,13.94,0,0,1-13.94-13.94v-8A0,0,0,0,1,905.44,863.7Z"/><path class="cls-5" d="M905.44,684.06h114.9a0,0,0,0,1,0,0v8A13.94,13.94,0,0,1,1006.4,706h-87a13.94,13.94,0,0,1-13.94-13.94v-8A0,0,0,0,1,905.44,684.06Z" transform="translate(1925.79 1390.07) rotate(180)"/><rect class="cls-4" x="572.09" y="684.33" width="271.06" height="201.33" rx="34.1"/><rect class="cls-5" x="598.2" y="707.92" width="218.82" height="154.14" rx="19.07"/><rect class="cls-4" x="1088.77" y="684.33" width="271.06" height="201.33" rx="34.1"/><rect class="cls-5" x="1114.89" y="707.92" width="218.82" height="154.14" rx="19.07"/><rect class="cls-4" x="687.62" y="885.66" width="40" height="42.64"/><path class="cls-4" d="M647.3,925.66H767.93a24.63,24.63,0,0,1,24.63,24.63v4a0,0,0,0,1,0,0H622.67a0,0,0,0,1,0,0v-4A24.63,24.63,0,0,1,647.3,925.66Z"/><rect class="cls-3" x="1088.77" y="885.93" width="271.06" height="32.47" rx="16.24"/></svg>