<svg id="Layer_1" data-name="Layer 1" xmlns="http://www.w3.org/2000/svg" viewBox="0 0 2642.94 1206.94"><defs><style>.cls-1{fill:#5aff5a;}</style></defs><path d="M909.74,424.07H808.48V734.58H769V424.07H667.31V385H909.74Z"/><path class="cls-1" d="M812,738.08H765.51V427.57H663.81v-46H913.24v46H812Zm-39.47-7H805V420.57H906.24v-32H670.81v32h101.7Z"/><path d="M971.08,672.13l30.36-22.33c15.83,29.92,51.61,49.87,88.69,49.87,45.75,0,83-24.72,83-59.19,0-39.25-50.09-58.12-94.76-75-42.94-16.7-90.86-37.73-90.86-91.73,0-53.77,48.35-93.89,109.72-93.89,51.83,0,87.17,28.41,100.18,62.88l-29.7,20c-11.28-26.23-39.47-44-70.91-44-37.52,0-69.61,24.73-69.61,55.95,0,33.83,38.38,46.19,83.49,63.54,52.47,21.25,102.13,45.53,102.13,101.7,0,60.28-55.73,99.53-122.95,99.53C1032.45,739.36,987.78,709.43,971.08,672.13Z"/><path class="cls-1" d="M1089.91,742.86c-27.89,0-54.34-7-76.49-20.12-20.66-12.28-36.84-29.74-45.54-49.18L966.73,671l35.9-26.41,1.9,3.58c15.19,28.72,49.59,48,85.6,48,21.71,0,41.84-5.69,56.68-16s22.87-24.36,22.87-39.65c0-36.74-49-55.27-92.16-71.63l-.34-.13c-21.93-8.53-44.79-18-62.5-32.43-20.6-16.74-30.62-37.21-30.62-62.57,0-26.91,11.75-51.69,33.08-69.78,21-17.8,49.47-27.61,80.14-27.61,58.15,0,91.57,33.65,103.46,65.15l1,2.59-35.51,23.85-1.67-3.87c-10.77-25.07-38-41.91-67.69-41.91-17.51,0-34.09,5.51-46.7,15.51s-19.41,23.05-19.41,36.94c0,29.29,32.13,41.54,72.81,57l8.43,3.23c24.16,9.78,51.57,21.6,71.73,38.33,22,18.24,32.65,40,32.65,66.64,0,29.6-13.36,56.29-37.62,75.13C1155.58,733,1124,742.86,1089.91,742.86ZM975.46,673.25c18.3,37.56,63.87,62.61,114.45,62.61,69.21,0,119.45-40.39,119.45-96,0-53.55-47.28-77.13-99.95-98.46l-8.36-3.2c-41.48-15.81-77.31-29.47-77.31-63.58,0-32.78,32.8-59.45,73.11-59.45,31,0,59.48,16.86,72.35,42.34l24-16.1c-11.88-28.53-42.9-58.05-95.89-58.05-60.55,0-106.22,38.86-106.22,90.39,0,49.87,41.92,70.3,88.63,88.47l.31.11c45.32,17.16,96.68,36.61,96.68,78.18,0,17.64-9.19,33.76-25.87,45.39-16,11.16-37.55,17.3-60.68,17.3-37.05,0-72.57-19.22-89.81-48.21Z"/><path d="M1300,385h39.47V734.58H1300Z"/><path class="cls-1" d="M1343,738.08H1296.5V381.53H1343Zm-39.47-7H1336V388.53H1303.5Z"/><path d="M1448.72,385h39.47V734.58h-39.47Zm44.67,173.7L1630,385h46.41l-136,172,148.32,177.59H1640.2Z"/><path class="cls-1" d="M1696.25,738.08h-57.69L1491.69,562.15V738.08h-46.47V381.53h46.47v173.7l136.61-173.7h55.34L1545,556.93Zm-54.42-7h39.46l-145.35-174,133.24-168.52H1631.7L1497.9,558.66Zm-189.61,0h32.47V388.53h-32.47Z"/><path d="M1975.62,695.34v39.24H1764.85V385h39.47V695.34Z"/><path class="cls-1" d="M1979.12,738.08H1761.35V381.53h46.47V691.84h171.3Zm-210.77-7h203.77V698.84h-171.3V388.53h-32.47Z"/></svg>