<?xml version="1.0" encoding="utf-8"?>
<!-- Generator: Adobe Illustrator 25.2.0, SVG Export Plug-In . SVG Version: 6.00 Build 0)  -->
<svg version="1.1" id="Layer_1" xmlns="http://www.w3.org/2000/svg" xmlns:xlink="http://www.w3.org/1999/xlink" x="0px" y="0px"
	 viewBox="0 0 1920 1080" style="enable-background:new 0 0 1920 1080;" xml:space="preserve">
<style type="text/css">
	.st0{fill:#49E2DE;}
</style>
<g>
	<g>
		<path class="st0" d="M585.8,465h43.5v1.2l-48.3,71.3l51.3,73.7v0.9h-43.5l-31.9-49.2L525,612.1h-43.5v-0.9l51.3-73.7l-48.3-71.3
			V465H528l28.9,49.8L585.8,465z"/>
		<path d="M633.9,613.6H588l-31.1-48l-31.1,48h-45.9v-2.9l51-73.2l-48-70.8v-3.2h45.9l28.1,48.3l28.1-48.3h45.9v3.2l-48,70.8
			l51,73.2V613.6z M589.6,610.6h40.5l-50.9-73.1l48.1-71h-40.7l-29.8,51.3l-29.8-51.3h-40.7l48.1,71l-50.9,73.1h40.5l32.7-50.5
			L589.6,610.6z"/>
	</g>
	<g>
		<path class="st0" d="M782.4,453.7c-7.2-11.9-26.8-23.3-49.5-23.3c-29.2,0-43.2,12.2-43.2,27.7c0,18.2,21.5,23.3,46.5,26.2
			c43.5,5.4,84.1,16.7,84.1,66.5c0,46.5-41.2,66.5-87.7,66.5c-42.7,0-75.5-13.1-91-51.3l32.8-17c9.2,23,33.4,33.1,58.8,33.1
			c24.8,0,48-8.6,48-31.3c0-19.7-20.6-27.7-48.3-30.7c-42.7-5.1-82-16.4-82-63.2c0-42.9,42.4-60.5,80.8-60.8
			c32.5,0,66.2,9.2,82,41.5L782.4,453.7z"/>
		<path d="M732.6,618.9c-23,0-41.5-3.8-56.4-11.5c-16.6-8.6-28.4-22-36-40.7l-0.5-1.3l35.5-18.4l0.6,1.5
			c8.1,20.1,29.6,32.2,57.4,32.2c10.9,0,46.5-2.2,46.5-29.8c0-16.3-15.4-25.8-47-29.2c-18.1-2.1-41-5.9-57.6-16.2
			c-17.3-10.6-25.7-26.5-25.7-48.6c0-42.6,41.3-62,82.3-62.3c41,0,69.8,14.6,83.4,42.3l0.6,1.3l-33.9,17.4l-0.7-1.2
			c-6.7-11.2-25.4-22.5-48.2-22.5c-25.8,0-41.7,10.1-41.7,26.2c0,16.1,18.1,21.5,45.2,24.8c44.4,5.5,85.4,17.5,85.4,68
			C821.8,601.1,775.7,618.9,732.6,618.9z M643.5,566.8c14.1,33.5,42.5,49.1,89.1,49.1c41.7,0,86.2-17.1,86.2-65
			c0-45.5-33.1-58.9-82.8-65c-23.1-2.8-47.8-7.4-47.8-27.7c0-14.1,11.8-29.2,44.7-29.2c23.1,0,42.3,11.3,50,22.8l28.8-14.8
			c-16.8-32.4-52.7-39.3-80-39.3c-39.5,0.3-79.3,18.8-79.3,59.3c0,45.8,38.8,56.8,80.7,61.7c33.4,3.6,49.6,14.1,49.6,32.2
			c0,20.5-18.5,32.8-49.5,32.8c-28.4,0-50.5-12.1-59.5-32.5L643.5,566.8z"/>
	</g>
	<g>
		<path class="st0" d="M902.6,423.6v41.8h40.6v31.3h-40.9v63.5c0,14,7.8,20.9,19.1,20.9c5.7,0,12.2-1.8,17.6-4.5l10.1,31
			c-10.4,4.2-19.1,6-30.1,6.3c-31.9,1.2-52.8-17-52.8-53.7v-63.5h-27.4v-31.3h27.4v-37.9L902.6,423.6z"/>
		<path d="M916.1,615.4c-15,0-27.5-4.4-36.3-12.9c-10-9.6-15.1-23.9-15.1-42.3v-62h-27.4v-34.3h27.4v-37.7l39.4-4.2v41.9h40.6v34.3
			h-40.9v62c0,12.3,6.4,19.4,17.6,19.4c5.2,0,11.5-1.6,16.9-4.3l1.6-0.8l11.1,34l-1.3,0.5c-10.6,4.2-19.4,6.1-30.6,6.4
			C918,615.4,917.1,615.4,916.1,615.4z M840.3,495.1h27.4v65c0,17.6,4.8,31.1,14.2,40.1c8.8,8.5,21.6,12.6,37.1,12
			c10.4-0.3,18.7-1.9,28.3-5.6l-9.2-28.1c-5.4,2.5-11.6,3.9-16.7,3.9c-12.9,0-20.6-8.4-20.6-22.4v-65h40.9v-28.3h-40.6v-41.6
			l-33.4,3.6v38h-27.4V495.1z"/>
	</g>
	<g>
		<path class="st0" d="M1086.9,465h34.9v147h-34.3l-1.8-21.5c-8.4,17.3-31.3,25.7-47.7,25.9c-43.5,0.3-75.8-26.5-75.8-78.1
			c0-50.7,33.7-77.3,76.7-77c19.7,0,38.5,9.2,46.8,23.9L1086.9,465z M998.6,538.4c0,28,19.4,44.7,43.5,44.7c57.3,0,57.3-89.2,0-89.2
			C1018,493.9,998.6,510.4,998.6,538.4z"/>
		<path d="M1037.3,618c-22.5,0-41.5-7.1-55-20.5c-14.1-14-21.5-34.4-21.5-59.1c0-23.7,7.4-43.5,21.3-57.4
			c13.7-13.6,33.6-21.1,56.1-21.1c0.2,0,0.5,0,0.7,0c18.8,0,36.2,8,45.6,20.7l1-17.2h37.8v150h-37.2l-1.5-18.1
			c-9.7,14.4-30.1,22.2-46.6,22.5C1037.8,618,1037.5,618,1037.3,618z M1038.2,462.9c-21.7,0-40.9,7.2-54,20.2
			c-13.4,13.3-20.5,32.4-20.5,55.3c0,23.9,7.1,43.6,20.6,57c13.1,13,31.6,19.8,53.6,19.6c17.2-0.3,38.6-9,46.4-25.1l2.4-4.9
			l2.1,25.6h31.4v-144h-32l-1.4,23.9l-2.5-4.4c-7.9-13.8-26.2-23.1-45.5-23.1C1038.7,462.9,1038.4,462.9,1038.2,462.9z
			 M1042.2,584.6c-26.5,0-45-19-45-46.2c0-27,18.5-45.9,45-45.9c30.5,0,44.5,23.9,44.5,46.1c0,12-3.9,23.3-11.1,31.6
			C1067.4,579.6,1055.9,584.6,1042.2,584.6z M1042.2,495.4c-25.1,0-42,17.3-42,42.9c0,25.5,17.3,43.2,42,43.2
			c12.8,0,23.6-4.6,31.1-13.4c6.7-7.8,10.4-18.4,10.4-29.7C1083.6,517.8,1070.7,495.4,1042.2,495.4z"/>
	</g>
	<g>
		<path class="st0" d="M1282,593.3c-17,16.7-34.9,23.3-56.7,23.3c-42.7,0-78.1-25.7-78.1-77.8c0-52.2,35.5-77.8,78.1-77.8
			c20.9,0,37,6,53.1,21.8l-23,24.2c-8.6-7.8-19.4-11.6-29.5-11.6c-24.5,0-42.4,17.9-42.4,43.5c0,28,19.1,43,41.8,43
			c11.6,0,23.3-3.3,32.2-12.2L1282,593.3z"/>
		<path d="M1225.3,618c-22.5,0-41.9-6.8-56.1-19.7c-15.4-14-23.6-34.7-23.6-59.6c0-25,8.1-45.6,23.6-59.6
			c14.2-12.9,33.6-19.7,56.1-19.7c22.1,0,38.3,6.6,54.1,22.2l1.1,1l-25,26.3l-1.1-1c-8-7.1-18.4-11.2-28.5-11.2
			c-24.1,0-40.9,17.3-40.9,42c0,28.6,20.2,41.5,40.3,41.5c12.8,0,23.3-4,31.2-11.8l1-1l26.6,26l-1.1,1.1
			C1266.3,610.7,1248.5,618,1225.3,618z M1225.3,462.3c-46.6,0-76.6,30-76.6,76.3s30.1,76.3,76.6,76.3c21.9,0,38.8-6.7,54.5-21.8
			l-22.3-21.8c-8.2,7.6-19.3,11.6-32.2,11.6c-21.5,0-43.3-13.7-43.3-44.5c0-26.1,18.4-45,43.9-45c10.4,0,21.1,4,29.4,11.1l21-22
			C1261.4,468.4,1246,462.3,1225.3,462.3z"/>
	</g>
	<g>
		<path class="st0" d="M1333.6,403.6v120.5l49.5-59.1h43.5v2.1l-60,67.1l68.3,75.2v2.7h-43.8l-57.6-66.5v66.5h-36.4V403.6H1333.6z"
			/>
		<path d="M1436.5,613.6h-46l-0.4-0.5l-54.9-63.5v64h-39.4V402.1h39.4v117.9l47.3-56.4h45.7v4.2l-59.4,66.5l67.8,74.6V613.6z
			 M1391.8,610.6h41.7V610l-68.8-75.7l60.5-67.7h-41.3l-51.7,61.7V405.1h-33.4v205.5h33.4v-69L1391.8,610.6z"/>
	</g>
</g>
</svg>
